<svg width="10" height="32" viewBox="0 0 10 32" fill="none" xmlns="http://www.w3.org/2000/svg">
<path d="M9.77516e-05 31.9995L3.19775 31.9995L3.19775 28.7998L9.80313e-05 28.7998L9.77516e-05 31.9995Z" fill="black"/>
<path d="M3.1981 28.7998L6.39575 28.7998L6.39575 25.6001L3.1981 25.6001L3.1981 28.7998Z" fill="black"/>
<path d="M3.1981 25.5996L6.39575 25.5996L6.39575 22.3999L3.1981 22.3999L3.1981 25.5996Z" fill="black"/>
<path d="M9.77516e-05 3.19974L3.19775 3.19974L3.19775 1.23448e-07L9.80313e-05 -1.561e-07L9.77516e-05 3.19974Z" fill="black"/>
<path d="M3.1981 6.39945L6.39575 6.39945L6.39575 3.19971L3.1981 3.19971L3.1981 6.39945Z" fill="black"/>
<path d="M3.1981 9.59915L6.39575 9.59915L6.39575 6.39941L3.1981 6.39941L3.1981 9.59915Z" fill="black"/>
<path d="M6.39609 22.3994L9.59375 22.3994L9.59375 19.1997L6.39609 19.1997L6.39609 22.3994Z" fill="black"/>
<path d="M6.39609 19.1993L9.59375 19.1993L9.59375 15.9995L6.39609 15.9995L6.39609 19.1993Z" fill="black"/>
<path d="M6.39609 15.9995L9.59375 15.9995L9.59375 12.7998L6.39609 12.7998L6.39609 15.9995Z" fill="black"/>
<path d="M6.39609 12.7993L9.59375 12.7993L9.59375 9.59961L6.39609 9.59961L6.39609 12.7993Z" fill="black"/>
</svg>
